<svg width="18" height="18" viewBox="0 0 18 18" fill="none" xmlns="http://www.w3.org/2000/svg">
<path d="M10.4417 16.5C10.2952 16.7526 10.0849 16.9622 9.83185 17.108C9.57884 17.2537 9.29198 17.3304 9 17.3304C8.70802 17.3304 8.42116 17.2537 8.16814 17.108C7.91513 16.9622 7.70484 16.7526 7.55833 16.5M14 5.66669C14 4.3406 13.4732 3.06883 12.5355 2.13115C11.5979 1.19347 10.3261 0.666687 9 0.666687C7.67392 0.666687 6.40215 1.19347 5.46447 2.13115C4.52678 3.06883 4 4.3406 4 5.66669C4 11.5 1.5 13.1667 1.5 13.1667H16.5C16.5 13.1667 14 11.5 14 5.66669Z" stroke="#5D6679" stroke-width="1.2" stroke-linecap="round" stroke-linejoin="round"/>
</svg>
